<svg xmlns="http://www.w3.org/2000/svg" width="300" height="230" fill="none"><g fill="#fff" clip-path="url(#a)"><path d="M39.26 210.094c-4.468 4.447-9.907 6.671-16.315 6.671-6.408 0-11.836-2.224-16.284-6.671C2.221 205.642 0 200.193 0 193.746c0-6.446 2.224-11.892 6.672-16.336 4.447-4.448 9.875-6.672 16.284-6.672 6.408 0 11.843 2.221 16.305 6.661 4.468 4.448 6.703 9.894 6.703 16.337s-2.235 11.896-6.703 16.358zm-26.486-5.945c2.74 2.719 6.134 4.079 10.182 4.079 4.047 0 7.44-1.36 10.18-4.079 2.741-2.719 4.111-6.187 4.111-10.403s-1.37-7.694-4.11-10.434c-2.74-2.74-6.134-4.11-10.181-4.11-4.048 0-7.441 1.37-10.182 4.11-2.74 2.74-4.11 6.218-4.11 10.434 0 4.216 1.37 7.684 4.11 10.403zm56.525-20.774c3.457 0 6.313 1.16 8.569 3.478 2.255 2.319 3.383 5.523 3.383 9.613v18.887a.527.527 0 0 1-.527.527h-7.115a.527.527 0 0 1-.527-.527v-17.876c0-2.107-.569-3.72-1.707-4.837-1.138-1.117-2.656-1.676-4.553-1.676-2.108 0-3.794.653-5.06 1.96-1.264 1.307-1.896 3.268-1.896 5.881v16.548a.527.527 0 0 1-.527.527h-7.115a.527.527 0 0 1-.527-.527v-30.565a.528.528 0 0 1 .527-.527h7.115a.526.526 0 0 1 .527.527v3.014c1.995-2.951 5.14-4.427 9.433-4.427zm25.822 20.042c1.096 3.963 4.068 5.944 8.917 5.944 2.949 0 5.22-.942 6.814-2.827a.523.523 0 0 1 .658-.111l5.684 3.278a.539.539 0 0 1 .251.346.517.517 0 0 1-.088.418c-3.109 4.198-7.588 6.297-13.438 6.295-5.228 0-9.422-1.581-12.584-4.743-3.162-3.162-4.743-7.146-4.743-11.952 0-4.764 1.56-8.737 4.68-11.92 3.12-3.183 7.124-4.775 12.015-4.775 4.637 0 8.463 1.602 11.477 4.806 3.015 3.204 4.522 7.167 4.522 11.889-.005.971-.087 1.94-.242 2.898a.523.523 0 0 1-.527.443l-23.396.011zm15.999-6.324c-.465-2.15-1.424-3.752-2.877-4.806a8.24 8.24 0 0 0-4.964-1.581c-2.193 0-4.005.558-5.439 1.676-1.433 1.117-2.385 2.687-2.856 4.711h16.136zm28.068 19.672c-4.392 0-8.081-.98-11.067-2.94a15.685 15.685 0 0 1-6.166-7.584.53.53 0 0 1 .227-.643l6.553-3.831a.537.537 0 0 1 .21-.069.544.544 0 0 1 .41.135.53.53 0 0 1 .128.179c1.788 4.146 5.107 6.218 9.958 6.216 2.445 0 4.236-.439 5.375-1.317a4.084 4.084 0 0 0 1.707-3.352c0-1.56-.695-2.772-2.087-3.636-1.391-.865-3.878-1.808-7.462-2.83a46.1 46.1 0 0 1-5.027-1.771 21.743 21.743 0 0 1-4.111-2.371 9.664 9.664 0 0 1-3.13-3.763 12.316 12.316 0 0 1-1.075-5.312c0-4.005 1.423-7.199 4.269-9.581 2.845-2.382 6.271-3.573 10.276-3.573 3.583 0 6.735.879 9.454 2.635a17.515 17.515 0 0 1 6.131 6.851.522.522 0 0 1-.208.693l-6.416 3.707a.526.526 0 0 1-.73-.213c-1.781-3.464-4.525-5.195-8.231-5.193-1.813 0-3.236.411-4.269 1.233a3.89 3.89 0 0 0-1.549 3.193 4.023 4.023 0 0 0 1.739 3.384c1.159.864 3.383 1.802 6.672 2.814 1.349.421 2.371.748 3.067.98.695.232 1.644.59 2.845 1.075.967.368 1.898.823 2.783 1.359a22.016 22.016 0 0 1 2.245 1.708 8.76 8.76 0 0 1 1.929 2.213 12.67 12.67 0 0 1 1.612 6.256c0 4.089-1.486 7.339-4.458 9.749-2.972 2.41-6.84 3.61-11.604 3.599zm25.421-36.299a5.071 5.071 0 0 1-5.006-5.006 4.902 4.902 0 0 1 1.486-3.541 4.74 4.74 0 0 1 3.51-1.518 4.818 4.818 0 0 1 3.573 1.518 4.904 4.904 0 0 1 1.486 3.541 4.809 4.809 0 0 1-1.486 3.51 4.873 4.873 0 0 1-3.563 1.496zm-4.047 34.887v-30.565a.527.527 0 0 1 .527-.527h7.114a.527.527 0 0 1 .527.527v30.565a.528.528 0 0 1-.527.527h-7.114a.528.528 0 0 1-.527-.527zm40.367-31.092h6.914a.527.527 0 0 1 .527.527v29.574c0 4.891-1.612 8.622-4.837 11.193-3.226 2.572-7.116 3.858-11.671 3.858-3.414 0-6.417-.654-9.008-1.961a13.698 13.698 0 0 1-5.716-5.298.541.541 0 0 1-.051-.4.533.533 0 0 1 .246-.32l6.058-3.462a.523.523 0 0 1 .706.179c1.634 2.66 4.311 3.989 8.032 3.989 2.571 0 4.591-.674 6.06-2.023 1.468-1.349 2.207-3.268 2.216-5.755v-3.425c-2.403 3.204-5.777 4.806-10.121 4.806-4.469 0-8.209-1.571-11.222-4.711-3.013-3.141-4.521-6.964-4.524-11.468 0-4.469 1.517-8.284 4.553-11.446 3.035-3.162 6.766-4.743 11.19-4.743 4.343 0 7.716 1.602 10.121 4.806v-3.393a.528.528 0 0 1 .527-.527zm-15.736 21.527c1.662 1.623 3.781 2.435 6.356 2.435 2.575 0 4.693-.812 6.353-2.435 1.665-1.623 2.498-3.699 2.5-6.229 0-2.487-.833-4.543-2.5-6.166-1.667-1.623-3.781-2.433-6.343-2.429-2.573 0-4.692.811-6.355 2.435-1.664 1.623-2.497 3.678-2.501 6.165-.007 2.53.823 4.604 2.49 6.224zm48.154-22.413c3.457 0 6.313 1.16 8.569 3.478 2.255 2.319 3.387 5.523 3.396 9.613v18.887a.527.527 0 0 1-.527.527h-7.114a.528.528 0 0 1-.527-.527v-17.876c0-2.107-.569-3.72-1.708-4.837-1.138-1.117-2.656-1.676-4.553-1.676-2.108 0-3.794.653-5.059 1.96-1.265 1.307-1.897 3.268-1.897 5.881v16.548a.527.527 0 0 1-.527.527h-7.114a.528.528 0 0 1-.527-.527v-30.565a.527.527 0 0 1 .527-.527h7.114a.527.527 0 0 1 .527.527v3.014c1.98-2.951 5.12-4.427 9.42-4.427zm43.466.886h7.114a.527.527 0 0 1 .527.527v30.565a.527.527 0 0 1-.527.527h-7.114a.528.528 0 0 1-.527-.527v-3.204c-2.446 3.077-5.882 4.616-10.308 4.616-4.216 0-7.831-1.612-10.846-4.838-3.014-3.225-4.521-7.177-4.521-11.857 0-4.679 1.507-8.632 4.521-11.857 3.015-3.225 6.63-4.838 10.846-4.838 4.426 0 7.862 1.539 10.308 4.617v-3.204a.527.527 0 0 1 .527-.527zm-15.578 22.228c1.644 1.665 3.731 2.498 6.26 2.498 2.53 0 4.627-.833 6.293-2.498 1.665-1.665 2.498-3.805 2.498-6.419 0-2.614-.833-4.753-2.498-6.418-1.666-1.666-3.763-2.498-6.293-2.498-2.529 0-4.616.832-6.26 2.498-1.644 1.665-2.466 3.804-2.466 6.418 0 2.614.822 4.754 2.466 6.419zm30.607 8.864v-45.11a.528.528 0 0 1 .527-.527h7.115a.526.526 0 0 1 .526.527v45.11a.527.527 0 0 1-.526.527h-7.115a.524.524 0 0 1-.372-.155.524.524 0 0 1-.155-.372zM149.864 0c-37.943.074-68.85 31.227-68.634 69.17.19 35.437 27.213 64.529 61.783 68.018a.803.803 0 0 0 .611-.202.782.782 0 0 0 .259-.589V68.772h-5.328a.791.791 0 0 1-.79-.79V57.32a.791.791 0 0 1 .79-.79h16.774a.79.79 0 0 1 .791.79v79.077a.785.785 0 0 0 .541.754.797.797 0 0 0 .326.037c34.699-3.502 61.786-32.795 61.786-68.416 0-38.028-30.866-68.846-68.909-68.772zm19.562 121.866a.786.786 0 0 1-1.054-.746v-11.288a1.187 1.187 0 0 1 .68-1.07 44.348 44.348 0 0 0 25.243-39.99c0-24.655-20.247-44.668-44.984-44.288-23.53.358-42.831 19.327-43.582 42.846a44.343 44.343 0 0 0 25.227 41.432 1.188 1.188 0 0 1 .682 1.07v11.29a.78.78 0 0 1-.333.646.796.796 0 0 1-.72.1c-21.789-7.992-37.337-29.04-37.113-53.623.276-30.71 25.363-55.766 56.084-56.003 31.374-.243 56.975 25.21 56.975 56.53 0 24.354-15.48 45.16-37.105 53.094z"/></g><defs><clipPath id="a"><path fill="#fff" d="M0 0h300v229.413H0z"/></clipPath></defs></svg>